<mxfile host="app.diagrams.net" modified="2021-05-01T06:40:39.504Z" agent="5.0 (Windows NT 10.0; Win64; x64) AppleWebKit/537.36 (KHTML, like Gecko) Chrome/90.0.4430.93 Safari/537.36" etag="q9VRv-GHNgvbJztZSude" version="14.6.9" type="github">
  <diagram id="HOz_D86VpV3s0dzUtA75" name="stats">
    <mxGraphModel dx="2622" dy="794" grid="1" gridSize="10" guides="1" tooltips="1" connect="1" arrows="1" fold="1" page="1" pageScale="1" pageWidth="1200" pageHeight="1600" math="0" shadow="0">
      <root>
        <mxCell id="0" />
        <mxCell id="1" parent="0" />
        <mxCell id="Ii6Pje73X-7WBVqU8yHy-15" value="" style="whiteSpace=wrap;html=1;" parent="1" vertex="1">
          <mxGeometry width="800" height="600" as="geometry" />
        </mxCell>
        <mxCell id="Di2Nf8yjGOXr8ErTS2VU-4" value="" style="shape=image;imageAspect=0;aspect=fixed;verticalLabelPosition=bottom;verticalAlign=top;image=https://sentoujunbi.files.wordpress.com/2016/06/fe7-stats.png;" parent="1" vertex="1">
          <mxGeometry x="410" y="610" width="520" height="348" as="geometry" />
        </mxCell>
        <mxCell id="Di2Nf8yjGOXr8ErTS2VU-2" value="" style="shape=image;imageAspect=0;aspect=fixed;verticalLabelPosition=bottom;verticalAlign=top;image=https://preview.redd.it/anzp43b2ic151.jpg?width=1182&amp;format=pjpg&amp;auto=webp&amp;s=ae0770d795eacdcb6eea8d373aea436c29fde0d5;" parent="1" vertex="1">
          <mxGeometry x="-130" y="610" width="520" height="322" as="geometry" />
        </mxCell>
        <mxCell id="kD2bEqAKUVUS7SuI2hkp-1" value="back button" style="whiteSpace=wrap;html=1;rounded=1;arcSize=50;fillColor=gray;" parent="1" vertex="1">
          <mxGeometry x="650" y="510" width="120" height="60" as="geometry" />
        </mxCell>
        <mxCell id="Ii6Pje73X-7WBVqU8yHy-19" value="&lt;span style=&quot;font-weight: 400&quot;&gt;sprite IMAGE&lt;/span&gt;" style="whiteSpace=wrap;html=1;fillColor=blue;fontStyle=1" parent="1" vertex="1">
          <mxGeometry x="570" y="30" width="200" height="300" as="geometry" />
        </mxCell>
        <mxCell id="Ii6Pje73X-7WBVqU8yHy-13" value="&lt;div style=&quot;text-align: justify&quot;&gt;&lt;font style=&quot;font-size: 10px&quot;&gt;debug: ID#--&lt;/font&gt;&lt;/div&gt;" style="text;html=1;resizable=0;autosize=1;align=center;verticalAlign=middle;points=[];fillColor=none;strokeColor=none;rounded=0;" parent="1" vertex="1">
          <mxGeometry x="1" y="1" width="70" height="20" as="geometry" />
        </mxCell>
        <mxCell id="4h-C5-mJMrpBCdYvZzWY-1" value="" style="shape=parallelogram;perimeter=parallelogramPerimeter;whiteSpace=wrap;html=1;fixedSize=1;rounded=1;fillColor=gray;" vertex="1" parent="1">
          <mxGeometry x="45" y="45" width="250" height="165" as="geometry" />
        </mxCell>
        <mxCell id="Ii6Pje73X-7WBVqU8yHy-1" value="&lt;div&gt;&lt;span&gt;Name: 16--------------&lt;/span&gt;&lt;/div&gt;" style="text;html=1;resizable=0;autosize=1;align=center;verticalAlign=middle;points=[];fillColor=none;strokeColor=none;rounded=0;labelPosition=center;verticalLabelPosition=middle;" parent="1" vertex="1">
          <mxGeometry x="85" y="65" width="120" height="20" as="geometry" />
        </mxCell>
        <mxCell id="Ii6Pje73X-7WBVqU8yHy-2" value="&lt;div&gt;&lt;span&gt;Gender: string----&lt;/span&gt;&lt;/div&gt;" style="text;html=1;resizable=0;autosize=1;align=left;verticalAlign=middle;points=[];fillColor=none;strokeColor=none;rounded=0;" parent="1" vertex="1">
          <mxGeometry x="85" y="100" width="110" height="20" as="geometry" />
        </mxCell>
        <mxCell id="Ii6Pje73X-7WBVqU8yHy-3" value="Species: string?----" style="text;html=1;resizable=0;autosize=1;align=left;verticalAlign=middle;points=[];fillColor=none;strokeColor=none;rounded=0;" parent="1" vertex="1">
          <mxGeometry x="85" y="135" width="120" height="20" as="geometry" />
        </mxCell>
        <mxCell id="Ii6Pje73X-7WBVqU8yHy-4" value="Pronouns: list?8-------" style="text;html=1;resizable=0;autosize=1;align=left;verticalAlign=middle;points=[];fillColor=none;strokeColor=none;rounded=0;" parent="1" vertex="1">
          <mxGeometry x="85" y="170" width="130" height="20" as="geometry" />
        </mxCell>
        <mxCell id="4h-C5-mJMrpBCdYvZzWY-9" value="" style="shape=hexagon;perimeter=hexagonPerimeter2;whiteSpace=wrap;html=1;fixedSize=1;rounded=1;fillColor=gray;" vertex="1" parent="1">
          <mxGeometry x="50" y="330" width="500" height="200" as="geometry" />
        </mxCell>
        <mxCell id="4h-C5-mJMrpBCdYvZzWY-24" value="&lt;font color=&quot;#000000&quot;&gt;#-- / #--&lt;/font&gt;" style="html=1;shape=mxgraph.bootstrap.rrect;rSize=5;fillColor=#E9ECEF;strokeColor=none;" vertex="1" parent="1">
          <mxGeometry x="405" y="65" width="100" height="10" as="geometry" />
        </mxCell>
        <mxCell id="4h-C5-mJMrpBCdYvZzWY-25" value="" style="html=1;shape=mxgraph.bootstrap.leftButton;rSize=5;fillColor=#33A64C;strokeColor=none;" vertex="1" parent="4h-C5-mJMrpBCdYvZzWY-24">
          <mxGeometry width="25" height="10" relative="1" as="geometry" />
        </mxCell>
        <mxCell id="4h-C5-mJMrpBCdYvZzWY-26" value="&lt;font color=&quot;#000000&quot;&gt;#-- / #--&lt;/font&gt;" style="html=1;shadow=0;dashed=0;shape=mxgraph.bootstrap.rrect;rSize=5;fillColor=#E9ECEF;strokeColor=none;rounded=1;glass=0;sketch=0;align=center;" vertex="1" parent="1">
          <mxGeometry x="405" y="135" width="100" height="10" as="geometry" />
        </mxCell>
        <mxCell id="4h-C5-mJMrpBCdYvZzWY-27" value="" style="html=1;shadow=0;dashed=0;shape=mxgraph.bootstrap.leftButton;rSize=5;fillColor=#1CA5B8;strokeColor=none;resizeHeight=1;" vertex="1" parent="4h-C5-mJMrpBCdYvZzWY-26">
          <mxGeometry width="25" height="10" relative="1" as="geometry" />
        </mxCell>
        <mxCell id="4h-C5-mJMrpBCdYvZzWY-30" value="&lt;font color=&quot;#000000&quot;&gt;#-- / #--&lt;/font&gt;" style="html=1;shadow=0;dashed=0;shape=mxgraph.bootstrap.rrect;rSize=5;fillColor=#E9ECEF;strokeColor=none;rounded=1;glass=0;sketch=0;align=center;" vertex="1" parent="1">
          <mxGeometry x="405" y="100" width="100" height="10" as="geometry" />
        </mxCell>
        <mxCell id="4h-C5-mJMrpBCdYvZzWY-31" value="" style="html=1;shadow=0;dashed=0;shape=mxgraph.bootstrap.leftButton;rSize=5;fillColor=#DB2843;strokeColor=none;resizeHeight=1;" vertex="1" parent="4h-C5-mJMrpBCdYvZzWY-30">
          <mxGeometry width="25" height="10" relative="1" as="geometry" />
        </mxCell>
        <mxCell id="Ii6Pje73X-7WBVqU8yHy-8" value="Vitality: #----" style="text;html=1;resizable=0;autosize=1;align=left;verticalAlign=middle;points=[];fillColor=none;strokeColor=none;rounded=0;" parent="1" vertex="1">
          <mxGeometry x="85" y="360" width="80" height="20" as="geometry" />
        </mxCell>
        <mxCell id="Ii6Pje73X-7WBVqU8yHy-9" value="Essence: #----" style="text;html=1;resizable=0;autosize=1;align=left;verticalAlign=middle;points=[];fillColor=none;strokeColor=none;rounded=0;" parent="1" vertex="1">
          <mxGeometry x="85" y="400" width="90" height="20" as="geometry" />
        </mxCell>
        <mxCell id="Ii6Pje73X-7WBVqU8yHy-10" value="Agility: #----" style="text;html=1;resizable=0;autosize=1;align=left;verticalAlign=middle;points=[];fillColor=none;strokeColor=none;rounded=0;" parent="1" vertex="1">
          <mxGeometry x="85" y="440" width="80" height="20" as="geometry" />
        </mxCell>
        <mxCell id="Ii6Pje73X-7WBVqU8yHy-11" value="Luck: #----" style="text;html=1;resizable=0;autosize=1;align=left;verticalAlign=middle;points=[];fillColor=none;strokeColor=none;rounded=0;" parent="1" vertex="1">
          <mxGeometry x="85" y="480" width="70" height="20" as="geometry" />
        </mxCell>
        <mxCell id="Ii6Pje73X-7WBVqU8yHy-5" value="Level: #--&amp;nbsp;" style="text;html=1;resizable=0;autosize=1;align=right;verticalAlign=middle;points=[];fillColor=none;strokeColor=none;rounded=0;" parent="1" vertex="1">
          <mxGeometry x="330" y="60" width="70" height="20" as="geometry" />
        </mxCell>
        <mxCell id="Ii6Pje73X-7WBVqU8yHy-6" value="Health:&amp;nbsp;" style="text;html=1;resizable=0;autosize=1;align=right;verticalAlign=middle;points=[];fillColor=none;strokeColor=none;rounded=0;" parent="1" vertex="1">
          <mxGeometry x="340" y="95" width="60" height="20" as="geometry" />
        </mxCell>
        <mxCell id="Ii6Pje73X-7WBVqU8yHy-7" value="Mana:&amp;nbsp;" style="text;html=1;resizable=0;autosize=1;align=right;verticalAlign=middle;points=[];fillColor=none;strokeColor=none;rounded=0;" parent="1" vertex="1">
          <mxGeometry x="350" y="130" width="50" height="20" as="geometry" />
        </mxCell>
        <mxCell id="4h-C5-mJMrpBCdYvZzWY-32" value="[description]" style="text;html=1;strokeColor=none;fillColor=none;align=center;verticalAlign=middle;whiteSpace=wrap;rounded=0;shadow=0;glass=0;sketch=0;" vertex="1" parent="1">
          <mxGeometry x="280" y="360" width="40" height="20" as="geometry" />
        </mxCell>
        <mxCell id="4h-C5-mJMrpBCdYvZzWY-36" value="[description]" style="text;html=1;strokeColor=none;fillColor=none;align=center;verticalAlign=middle;whiteSpace=wrap;rounded=0;shadow=0;glass=0;sketch=0;" vertex="1" parent="1">
          <mxGeometry x="280" y="400" width="40" height="20" as="geometry" />
        </mxCell>
        <mxCell id="4h-C5-mJMrpBCdYvZzWY-37" value="[description]" style="text;html=1;strokeColor=none;fillColor=none;align=center;verticalAlign=middle;whiteSpace=wrap;rounded=0;shadow=0;glass=0;sketch=0;" vertex="1" parent="1">
          <mxGeometry x="280" y="440" width="40" height="20" as="geometry" />
        </mxCell>
        <mxCell id="4h-C5-mJMrpBCdYvZzWY-38" value="[description]" style="text;html=1;strokeColor=none;fillColor=none;align=center;verticalAlign=middle;whiteSpace=wrap;rounded=0;shadow=0;glass=0;sketch=0;" vertex="1" parent="1">
          <mxGeometry x="280" y="480" width="40" height="20" as="geometry" />
        </mxCell>
      </root>
    </mxGraphModel>
  </diagram>
</mxfile>
